<svg xmlns="http://www.w3.org/2000/svg" width="1080" height="387" viewBox="0 0 1080 387">
<g>
<path d="M 881.67 206.51 C869.76,210.04 855.82,206.01 849.26,197.14 C844.57,190.80 843.66,187.75 843.65,178.41 C843.64,169.49 843.71,169.21 847.57,163.41 C850.62,158.82 852.84,156.78 857.50,154.28 C862.93,151.36 864.33,151.05 872.28,151.03 C880.06,151.00 881.73,151.34 886.96,153.98 C897.02,159.06 901.01,166.23 900.99,179.22 C900.98,185.83 900.50,188.53 898.59,192.62 C895.72,198.79 888.95,204.34 881.67,206.51 ZM 954.71 205.15 C949.38,207.87 937.27,208.56 930.91,206.51 C924.74,204.52 917.26,197.75 914.37,191.54 C911.06,184.44 911.07,173.50 914.39,166.50 C919.40,155.91 928.03,151.00 941.62,151.00 C948.61,151.00 950.90,151.42 954.92,153.46 C960.81,156.45 966.60,162.96 968.23,168.45 C969.78,173.67 969.78,184.35 968.22,189.61 C966.69,194.77 960.02,202.44 954.71,205.15 ZM 300.00 193.88 L 300.00 206.00 L 288.00 206.00 L 288.00 152.00 L 301.68 152.00 L 310.00 171.50 C314.57,182.23 318.63,191.00 319.02,191.00 C319.72,191.00 328.06,173.17 333.75,159.50 L 336.67 152.50 L 343.31 152.21 C349.51,151.93 349.98,152.06 350.50,154.21 C350.81,155.47 350.94,167.52 350.78,181.00 L 350.50 205.50 L 338.50 205.50 L 338.50 194.27 C338.50,188.10 338.12,182.92 337.65,182.77 C337.18,182.62 334.45,187.68 331.59,194.00 L 326.38 205.50 L 319.30 205.79 L 312.23 206.08 L 309.29 199.79 C307.67,196.33 305.54,191.37 304.54,188.76 C303.55,186.16 302.12,183.52 301.37,182.89 C300.22,181.94 300.00,183.73 300.00,193.88 ZM 447.50 204.90 C445.30,205.50 437.76,205.99 430.75,205.99 L 418.00 206.00 L 418.00 152.00 L 429.78 152.00 C448.17,152.00 456.05,155.11 461.58,164.54 C464.72,169.90 465.76,179.65 463.99,187.05 C462.35,193.87 453.72,203.21 447.50,204.90 ZM 803.21 196.25 L 802.93 206.00 L 796.96 206.00 C791.95,206.00 791.00,205.72 791.01,204.25 C791.01,203.29 790.85,191.62 790.65,178.33 C790.44,165.04 790.61,153.63 791.02,152.97 C791.55,152.11 796.08,151.89 807.63,152.16 C825.73,152.59 827.47,153.20 830.95,160.40 C833.19,165.03 833.53,169.65 832.02,174.93 C830.95,178.66 826.41,184.00 824.31,184.00 C822.11,184.00 822.81,186.62 827.42,195.73 C829.85,200.53 831.62,204.80 831.36,205.23 C831.10,205.65 828.32,205.99 825.19,205.99 L 819.50 205.97 L 814.44 196.24 C809.78,187.28 809.14,186.50 806.44,186.50 L 803.50 186.50 ZM 703.29 206.51 C696.53,208.27 694.07,208.29 687.80,206.60 C678.90,204.20 671.35,197.45 668.43,189.25 C666.26,183.17 666.61,171.21 669.10,166.49 C672.19,160.62 676.85,156.06 682.50,153.39 C689.11,150.26 702.38,150.03 708.50,152.95 C712.33,154.78 714.12,155.62 714.32,156.74 C714.50,157.71 713.51,158.90 711.65,161.13 L 711.55 161.24 L 707.83 165.70 L 704.16 163.78 C699.40,161.30 690.21,161.73 686.24,164.62 C682.65,167.23 678.99,174.51 679.02,178.96 C679.05,183.98 682.21,190.30 686.04,193.03 C689.97,195.83 698.27,196.73 702.00,194.77 C703.73,193.86 704.60,192.46 704.81,190.23 C705.13,187.02 705.10,187.00 700.56,187.00 L 696.00 187.00 L 696.00 176.93 L 717.50 177.50 L 717.80 186.47 C717.97,191.41 717.85,196.47 717.53,197.72 C716.78,200.72 710.39,204.66 703.29,206.51 ZM 573.58 200.40 C572.04,205.29 571.58,205.83 568.69,206.15 C566.94,206.34 564.22,206.35 562.65,206.17 C560.06,205.88 559.84,205.56 560.30,202.67 C560.57,200.93 564.44,188.93 568.89,176.00 C573.34,163.07 576.99,152.39 576.99,152.25 C577.00,152.11 580.10,152.00 583.88,152.00 C584.64,152.00 585.32,151.98 585.93,151.96 C587.49,151.91 588.58,151.87 589.48,152.27 C591.87,153.33 592.90,157.45 597.98,172.50 C600.77,180.75 604.37,191.28 605.99,195.89 C607.61,200.51 608.70,204.67 608.41,205.14 C608.12,205.62 605.27,206.00 602.08,206.00 L 596.27 206.00 L 592.81 195.00 L 575.27 195.00 ZM 404.50 195.50 L 404.50 206.50 L 386.50 206.75 C376.60,206.88 367.90,206.61 367.18,206.14 C366.13,205.47 365.87,199.78 365.93,178.98 C365.97,164.50 366.13,152.54 366.28,152.39 C366.43,152.24 375.09,152.03 385.52,151.93 L 404.50 151.75 L 404.50 162.50 L 391.20 162.78 L 377.89 163.06 L 378.20 167.78 L 378.50 172.50 L 389.30 172.14 L 400.11 171.77 L 399.80 177.64 L 399.50 183.50 L 378.00 184.07 L 378.00 194.94 ZM 761.08 206.86 C757.53,207.92 750.79,208.27 748.50,207.51 C747.95,207.33 746.25,206.90 744.72,206.56 C740.88,205.71 734.06,199.31 731.87,194.50 C730.31,191.08 730.04,187.71 730.02,171.25 L 730.00 152.00 L 741.88 152.00 L 742.19 171.08 L 742.50 190.16 L 746.24 193.58 C748.61,195.75 750.98,197.00 752.74,197.00 C756.04,196.99 761.46,193.88 762.92,191.15 C763.50,190.07 764.27,180.82 764.64,170.59 L 765.31 152.00 L 770.64 152.00 C775.54,152.00 776.01,152.21 776.62,154.61 C776.98,156.04 777.05,164.76 776.79,173.98 C776.36,188.70 776.03,191.31 774.06,195.37 C771.42,200.82 766.40,205.26 761.08,206.86 ZM 539.83 206.46 C530.82,209.13 521.49,207.69 513.93,202.45 C505.00,196.26 501.55,188.71 502.19,176.71 C502.54,170.06 503.14,167.62 505.36,163.83 C510.69,154.75 518.15,151.00 530.87,151.01 C537.91,151.02 540.47,151.47 544.75,153.46 C547.64,154.81 550.00,156.18 550.00,156.51 C550.00,156.85 548.38,159.06 546.40,161.42 L 542.81 165.72 L 538.95 163.86 C534.30,161.62 526.97,161.45 523.00,163.50 C512.23,169.07 511.22,186.04 521.24,193.17 C525.74,196.38 533.53,196.79 538.79,194.11 C544.26,191.32 545.04,191.42 548.86,195.35 L 552.10 198.70 L 548.57 201.81 C546.62,203.52 542.69,205.61 539.83,206.46 ZM 658.68 205.75 C658.00,206.67 652.95,207.00 639.54,207.00 C629.53,207.00 621.03,206.70 620.67,206.33 C620.30,205.97 620.00,193.59 620.00,178.83 L 620.00 152.00 L 631.96 152.00 L 632.50 194.50 L 659.50 195.50 L 659.55 200.00 C659.58,202.48 659.19,205.06 658.68,205.75 ZM 935.22 195.74 C941.36,197.71 945.40,197.22 949.93,193.94 C957.59,188.39 959.92,179.19 955.75,171.02 C952.63,164.91 949.23,162.71 942.26,162.26 C932.81,161.65 927.30,165.70 924.91,175.00 C922.77,183.34 927.74,193.35 935.22,195.74 ZM 864.91 194.67 C873.39,199.15 882.54,196.37 886.75,188.03 C890.76,180.09 889.34,171.41 883.06,165.50 C880.11,162.73 879.32,162.50 872.68,162.54 C866.65,162.57 864.95,162.97 862.16,165.04 C852.62,172.08 854.20,189.02 864.91,194.67 ZM 489.38 202.88 C488.76,205.95 488.65,206.00 482.88,206.00 L 477.00 206.00 L 477.00 152.00 L 488.74 152.00 L 489.36 155.75 C490.17,160.66 490.18,198.84 489.38,202.88 ZM 430.00 163.00 L 430.00 195.00 L 435.53 195.00 C446.43,195.00 452.10,190.09 452.77,180.07 C453.10,175.26 452.75,173.88 450.22,169.95 C446.96,164.87 442.77,163.00 434.63,163.00 ZM 219.50 199.04 C219.50,199.10 218.56,199.33 217.42,199.54 C214.92,200.01 213.00,198.32 213.00,195.66 C213.00,193.80 232.45,173.00 234.19,173.00 C234.64,173.00 235.00,177.50 235.00,183.00 C235.00,189.00 234.60,193.00 234.00,193.00 C233.45,193.00 233.00,193.87 233.00,194.94 C233.00,197.55 232.14,197.95 225.33,198.47 C222.12,198.72 219.50,198.97 219.50,199.04 ZM 70.51 218.00 C70.12,218.00 68.28,219.69 66.42,221.75 L 63.05 225.50 L 63.02 212.25 L 63.00 199.00 L 67.88 199.00 C74.12,199.00 79.12,200.00 78.43,201.11 C78.14,201.59 78.54,201.73 79.32,201.43 C80.10,201.13 81.02,201.61 81.36,202.49 C81.78,203.60 81.59,203.88 80.74,203.38 C80.06,202.98 80.27,203.53 81.20,204.60 C82.84,206.48 82.68,206.78 77.06,212.28 C73.85,215.42 70.90,218.00 70.51,218.00 ZM 803.67 174.33 C804.57,175.24 816.22,175.15 817.60,174.23 C818.91,173.36 821.00,169.57 821.00,168.07 C821.00,167.48 820.10,166.10 819.00,165.00 C817.38,163.38 815.67,163.00 810.00,163.00 L 803.00 163.00 L 803.00 168.33 C803.00,171.27 803.30,173.97 803.67,174.33 ZM 98.07 261.96 C96.15,262.99 91.03,263.17 87.85,262.33 C86.07,261.86 85.02,255.16 86.04,250.82 C86.50,248.86 87.31,248.45 91.26,248.20 C98.46,247.73 100.00,249.02 100.00,255.50 C100.00,259.84 99.61,261.14 98.07,261.96 ZM 132.34 253.45 C132.94,255.00 122.78,266.48 121.75,265.43 C119.61,263.25 121.43,256.78 125.39,252.45 C126.63,251.10 131.72,251.83 132.34,253.45 ZM 580.45 180.25 C579.82,182.86 579.97,183.00 583.33,183.00 C585.28,183.00 587.15,182.56 587.49,182.02 C588.28,180.74 586.43,173.97 584.62,171.49 C583.10,169.42 583.02,169.59 580.45,180.25 Z" fill="rgb(33,136,35)"/>
<path d="M 188.00 197.71 C188.00,200.93 185.55,203.64 154.03,235.34 L 120.07 269.50 L 119.50 227.50 L 99.13 227.00 L 78.77 226.50 L 95.63 210.13 C104.91,201.13 114.26,192.64 116.41,191.27 C118.56,189.90 121.39,187.70 122.70,186.39 C125.13,183.96 129.20,183.10 128.75,185.11 C128.40,186.66 132.98,187.00 161.50,187.51 C186.77,187.97 192.00,188.70 192.00,191.79 C192.00,192.64 191.70,193.04 191.34,192.68 C190.00,191.34 188.00,194.35 188.00,197.71 ZM 89.88 199.61 C75.37,214.11 63.09,225.98 62.59,225.99 C62.05,225.99 61.95,217.71 62.34,205.75 C62.70,194.61 63.00,182.24 63.00,178.25 L 63.00 171.00 L 88.94 171.00 C107.01,171.00 115.09,171.34 115.57,172.12 C115.98,172.78 105.49,184.01 89.88,199.61 ZM 219.50 199.04 C219.50,198.97 222.12,198.72 225.33,198.47 C232.14,197.95 233.00,197.55 233.00,194.94 C233.00,193.87 233.45,193.00 234.00,193.00 C234.35,193.00 234.63,191.63 234.81,189.30 C234.82,192.65 234.80,196.36 234.77,200.25 L 234.50 227.50 L 207.93 227.77 C193.32,227.91 181.04,227.71 180.64,227.31 C180.12,226.78 207.89,198.36 223.68,182.85 C218.34,188.51 213.00,194.68 213.00,195.66 C213.00,198.32 214.92,200.01 217.42,199.54 C218.56,199.33 219.50,199.10 219.50,199.04 ZM 70.51 218.00 C70.90,218.00 73.85,215.42 77.06,212.28 C82.68,206.78 82.84,206.48 81.20,204.60 C80.27,203.53 80.06,202.98 80.74,203.38 C81.59,203.88 81.78,203.60 81.36,202.49 C81.02,201.61 80.10,201.13 79.32,201.43 C78.54,201.73 78.14,201.59 78.43,201.11 C79.12,200.00 74.12,199.00 67.88,199.00 L 63.00 199.00 L 63.02 212.25 L 63.05 225.50 L 66.42 221.75 C68.28,219.69 70.12,218.00 70.51,218.00 ZM 422.00 249.50 C420.96,252.24 417.00,253.04 417.00,250.50 C417.00,248.76 420.93,236.97 421.99,235.50 C422.40,234.95 423.02,233.26 423.38,231.75 C423.93,229.45 424.57,229.00 427.29,229.00 C430.54,229.00 430.55,229.02 433.96,239.52 C436.47,247.26 437.08,250.32 436.25,251.15 C434.65,252.75 432.00,251.43 432.00,249.03 C432.00,247.29 431.36,247.00 427.48,247.00 C423.57,247.00 422.82,247.34 422.00,249.50 ZM 452.79 240.57 C452.55,249.69 452.23,251.53 450.88,251.79 C448.68,252.21 448.03,249.26 448.01,238.87 C448.00,230.13 449.11,227.21 451.82,228.89 C452.73,229.45 452.99,232.65 452.79,240.57 ZM 132.34 253.45 C131.72,251.83 126.63,251.10 125.39,252.45 C121.43,256.78 119.61,263.25 121.75,265.43 C122.78,266.48 132.94,255.00 132.34,253.45 ZM 126.72 161.00 C124.16,164.15 122.42,165.02 121.18,163.78 C119.53,162.13 119.70,160.51 122.02,155.96 C123.84,152.40 124.24,152.13 126.02,153.24 C128.24,154.63 128.60,158.68 126.72,161.00 ZM 176.00 236.67 C176.00,239.23 175.58,240.00 174.17,240.00 C170.55,240.00 169.79,236.40 172.83,233.65 C175.13,231.58 176.00,232.41 176.00,236.67 ZM 331.91 244.63 C331.99,249.46 330.29,252.96 328.66,251.32 C327.63,250.30 327.89,246.00 328.97,246.00 C329.51,246.00 330.37,244.54 330.88,242.75 C331.78,239.65 331.82,239.74 331.91,244.63 ZM 589.25 249.34 C590.05,249.66 589.91,249.87 588.87,249.92 C584.57,250.13 584.15,244.02 588.32,241.88 C590.12,240.95 590.28,240.99 589.25,242.08 C588.56,242.80 588.00,244.62 588.00,246.12 C588.00,247.61 588.56,249.06 589.25,249.34 ZM 492.93 248.37 C490.98,250.83 485.05,252.34 486.50,250.00 C486.84,249.45 488.23,249.00 489.58,249.00 C491.53,249.00 492.18,248.36 492.65,245.98 C493.35,242.49 495.00,240.96 495.00,243.81 C495.00,244.86 494.07,246.92 492.93,248.37 ZM 361.00 242.50 C361.00,248.06 360.87,248.54 359.67,247.33 C358.60,246.27 358.90,237.00 360.00,237.00 C360.55,237.00 361.00,239.48 361.00,242.50 ZM 565.75 240.24 C568.09,241.70 568.21,241.95 566.50,241.94 C563.48,241.94 561.00,240.14 561.00,237.95 C561.00,236.88 561.45,236.00 562.00,236.00 C562.55,236.00 563.00,236.57 563.00,237.27 C563.00,237.97 564.24,239.30 565.75,240.24 ZM 378.00 245.70 C378.00,248.30 376.24,248.80 375.35,246.46 C374.73,244.85 377.56,241.00 379.35,241.00 C380.00,241.00 379.94,241.46 379.20,242.20 C378.54,242.86 378.00,244.43 378.00,245.70 ZM 349.59 234.77 C350.38,235.29 350.36,236.28 349.53,238.27 C348.18,241.52 347.00,240.85 347.00,236.83 C347.00,233.95 347.63,233.45 349.59,234.77 ZM 572.90 248.20 C571.49,250.82 570.20,250.40 570.76,247.49 C571.02,246.12 570.62,244.20 569.87,243.24 C568.60,241.63 568.65,241.61 570.50,243.00 C573.51,245.26 573.95,246.22 572.90,248.20 ZM 483.32 247.75 C483.93,250.55 482.44,250.70 480.99,247.99 C480.28,246.65 480.24,245.39 480.89,244.24 C481.94,242.36 482.22,242.77 483.32,247.75 ZM 425.80 241.46 C426.89,242.56 428.50,241.34 428.82,239.17 C429.02,237.79 428.61,237.00 427.69,237.00 C426.20,237.00 424.75,240.42 425.80,241.46 ZM 547.49 242.31 C547.91,243.30 547.84,245.55 547.34,247.31 C546.10,251.59 544.89,248.62 545.95,243.91 C546.57,241.15 546.86,240.84 547.49,242.31 ZM 521.00 241.93 C521.00,243.81 519.09,245.02 518.93,243.25 C518.89,242.84 518.70,241.26 518.50,239.75 C518.18,237.36 518.32,237.18 519.57,238.42 C520.36,239.21 521.00,240.79 521.00,241.93 ZM 541.00 250.57 C541.00,251.51 537.32,250.92 536.20,249.80 C534.06,247.66 534.92,247.12 538.00,248.65 C539.65,249.47 541.00,250.34 541.00,250.57 ZM 349.00 247.30 C349.00,251.61 348.31,252.09 347.39,248.43 C347.03,246.97 347.24,245.36 347.87,244.73 C348.71,243.89 349.00,244.56 349.00,247.30 ZM 600.00 241.50 C600.00,244.12 599.77,244.44 598.67,243.33 C597.63,242.30 597.88,239.00 599.00,239.00 C599.55,239.00 600.00,240.12 600.00,241.50 ZM 389.00 245.94 C389.00,247.01 388.55,248.16 388.00,248.50 C387.43,248.85 387.00,248.01 387.00,246.56 C387.00,245.15 387.45,244.00 388.00,244.00 C388.55,244.00 389.00,244.87 389.00,245.94 ZM 234.35 173.20 C234.31,173.09 234.27,173.03 234.22,173.01 C234.24,173.00 234.25,173.00 234.26,173.00 C234.29,173.00 234.32,173.07 234.35,173.20 Z" fill="rgb(74,190,80)"/>
<path d="M 188.00 197.71 C188.00,194.35 190.00,191.34 191.34,192.68 C191.70,193.04 192.00,192.64 192.00,191.79 C192.00,188.70 186.77,187.97 161.50,187.51 C132.98,187.00 128.40,186.66 128.75,185.11 C129.20,183.10 125.13,183.96 122.70,186.39 C121.39,187.70 118.56,189.90 116.41,191.27 C114.26,192.64 104.91,201.13 95.63,210.13 L 78.77 226.50 L 99.13 227.00 L 119.50 227.50 L 120.06 268.93 C119.25,268.29 119.00,263.11 119.00,248.50 L 119.00 228.00 L 98.50 228.00 C87.22,228.00 78.00,227.62 78.00,227.15 C78.00,226.29 174.65,130.00 175.52,130.00 C175.79,130.00 176.00,138.99 176.00,149.98 L 176.00 169.96 L 219.50 170.50 L 170.50 219.75 C147.83,242.53 128.24,261.82 122.17,267.38 L 154.03 235.34 C185.55,203.64 188.00,200.93 188.00,197.71 ZM 147.43 141.85 C132.70,156.78 120.27,169.00 119.81,169.00 C119.35,169.00 119.09,156.51 119.23,141.25 L 119.50 113.50 L 145.50 113.40 C159.80,113.35 172.11,113.62 172.85,114.00 C173.79,114.48 165.97,123.05 147.43,141.85 ZM 177.00 257.50 L 177.00 285.00 L 149.50 285.00 C134.38,285.00 122.00,284.67 122.00,284.26 C122.00,283.28 175.26,230.00 176.24,230.00 C176.66,230.00 177.00,242.38 177.00,257.50 ZM 210.75 150.05 C210.06,150.08 207.70,150.22 205.50,150.36 C197.24,150.90 197.00,150.69 197.00,142.93 L 197.00 136.00 L 212.00 136.00 L 212.00 143.00 C212.00,147.91 211.63,150.02 210.75,150.05 ZM 331.91 244.63 C331.82,239.74 331.78,239.65 330.88,242.75 C330.37,244.54 329.51,246.00 328.97,246.00 C328.05,246.00 327.73,249.11 328.28,250.67 C328.07,250.44 327.86,250.15 327.64,249.82 C326.82,248.54 325.84,245.81 325.46,243.74 C324.79,240.06 323.00,237.53 323.00,240.26 C323.00,241.02 322.31,243.97 321.46,246.82 C319.99,251.79 317.55,253.72 316.50,250.75 C313.91,243.45 313.28,233.00 315.41,233.00 C316.38,233.00 317.12,234.97 317.75,239.25 C318.70,245.75 319.00,245.62 321.03,237.75 C322.60,231.70 325.01,231.37 326.76,236.98 C327.44,239.18 328.00,241.65 328.00,242.48 C328.00,243.32 328.45,244.00 329.00,244.00 C329.55,244.00 330.00,242.93 330.00,241.62 C330.00,237.12 331.25,233.00 332.62,233.00 C334.32,233.00 334.40,236.68 332.86,244.32 C332.29,247.17 331.67,249.16 330.98,250.29 C331.57,249.00 331.95,246.97 331.91,244.63 ZM 388.69 249.41 C387.90,250.50 385.59,251.41 382.83,251.72 C379.00,252.15 377.96,251.87 376.14,249.93 C373.75,247.35 373.41,244.99 375.18,243.22 C376.09,242.31 376.06,241.49 375.08,239.65 C373.24,236.21 375.13,233.00 378.98,233.00 C382.50,233.00 383.93,234.73 380.78,235.18 C377.78,235.61 377.14,238.96 379.91,239.69 C382.26,240.30 382.79,243.00 380.57,243.00 C378.96,243.00 377.53,246.44 378.49,247.99 C379.30,249.29 384.69,249.31 385.49,248.02 C385.82,247.48 386.11,243.88 386.12,240.02 C386.14,233.76 386.35,233.00 388.07,233.00 C389.80,233.00 390.00,233.75 390.00,240.31 C390.00,244.76 389.49,248.32 388.69,249.41 ZM 598.41 249.89 C595.01,252.57 588.95,252.71 586.65,250.17 C584.72,248.03 584.48,243.92 586.20,242.20 C587.13,241.27 587.13,240.73 586.20,239.80 C584.08,237.68 584.78,234.04 587.49,233.00 C590.09,232.01 593.00,232.59 593.00,234.09 C593.00,234.57 591.88,235.24 590.50,235.59 C587.51,236.34 587.19,238.98 590.00,239.71 C592.35,240.32 592.65,242.54 590.50,243.36 C588.56,244.11 588.56,247.89 590.50,248.64 C591.33,248.96 593.11,248.94 594.46,248.60 C596.74,248.03 596.93,247.49 597.21,240.74 C597.44,235.10 597.83,233.50 599.00,233.50 C600.17,233.50 600.56,235.09 600.79,240.64 C601.07,247.36 600.92,247.91 598.41,249.89 ZM 349.80 244.96 C349.52,250.82 348.42,253.09 346.69,251.35 C346.31,250.98 346.00,246.64 346.00,241.71 L 346.00 232.75 L 348.96 233.34 C350.59,233.67 352.19,233.50 352.52,232.97 C353.56,231.29 357.92,231.92 360.04,234.04 C361.80,235.80 362.04,237.13 361.79,243.79 C361.56,249.85 361.18,251.50 360.00,251.50 C358.82,251.50 358.44,249.84 358.21,243.75 L 357.92 236.00 L 355.08 236.00 C351.11,236.00 350.15,237.63 349.80,244.96 ZM 493.55 249.55 C490.67,252.42 485.61,252.82 482.22,250.44 C480.56,249.28 480.00,247.88 480.00,244.94 C480.00,241.10 480.09,241.00 483.50,241.00 C485.42,241.00 487.00,241.45 487.00,242.00 C487.00,242.55 486.33,243.00 485.50,243.00 C483.47,243.00 483.53,247.88 485.56,248.66 C486.42,248.99 488.22,248.76 489.56,248.15 C491.66,247.20 492.00,246.37 492.00,242.13 C492.00,236.53 491.33,236.00 484.33,236.00 C477.59,236.00 479.23,233.58 486.22,233.20 C491.24,232.94 491.99,233.17 493.89,235.59 C496.95,239.48 496.78,246.31 493.55,249.55 ZM 542.76 250.84 C539.08,254.52 532.50,250.10 533.18,244.39 C533.65,240.37 535.66,240.37 536.42,244.40 C537.15,248.32 539.73,249.75 542.96,248.02 C544.54,247.18 545.00,245.93 545.00,242.50 C545.00,236.86 542.10,233.63 538.32,235.07 C534.96,236.35 534.00,236.24 534.00,234.59 C534.00,232.70 540.82,231.60 544.31,232.93 C547.73,234.23 549.00,237.51 549.00,245.01 C549.00,251.19 547.91,253.00 545.41,250.93 C544.28,249.99 543.63,249.97 542.76,250.84 ZM 519.30 249.14 C518.24,250.20 515.72,251.33 513.69,251.66 L 510.00 252.26 L 510.00 248.10 C510.00,245.32 509.50,243.75 508.50,243.36 C505.96,242.39 506.84,241.00 510.00,241.00 C512.75,241.00 513.00,241.28 513.00,244.44 C513.00,248.53 514.24,249.61 516.42,247.44 C518.47,245.39 518.44,240.08 516.38,237.13 C514.94,235.08 514.23,234.89 510.27,235.48 C506.77,236.01 505.88,235.86 506.22,234.83 C506.50,233.99 508.70,233.39 512.22,233.20 C517.29,232.93 517.98,233.16 519.99,235.70 C521.74,237.93 522.10,239.40 521.71,242.86 C521.44,245.28 520.37,248.08 519.30,249.14 ZM 572.90 248.20 C573.95,246.22 573.51,245.26 570.50,243.00 C568.65,241.61 568.60,241.63 569.87,243.24 C570.46,244.00 570.84,245.36 570.84,246.58 C570.44,245.59 568.76,244.34 565.75,242.94 C556.87,238.81 558.30,233.00 568.19,233.00 C571.80,233.00 573.00,233.37 573.00,234.50 C573.00,235.62 571.82,236.00 568.42,236.00 C562.74,236.00 562.93,237.45 569.08,241.04 C573.98,243.90 575.31,247.54 572.48,250.37 C570.11,252.75 560.00,252.38 560.00,249.92 C560.00,249.41 561.76,249.00 563.92,249.00 C567.81,249.00 570.10,248.48 570.74,247.58 C570.23,250.41 571.50,250.80 572.90,248.20 ZM 304.00 250.61 C304.00,252.06 299.49,252.60 298.65,251.25 C297.82,249.89 297.57,234.51 298.36,233.22 C299.99,230.58 301.00,233.40 301.00,240.59 C301.00,246.31 301.35,248.20 302.50,248.64 C303.33,248.95 304.00,249.84 304.00,250.61 ZM 126.72 161.00 C128.60,158.68 128.24,154.63 126.02,153.24 C124.24,152.13 123.84,152.40 122.02,155.96 C119.70,160.51 119.53,162.13 121.18,163.78 C122.42,165.02 124.16,164.15 126.72,161.00 ZM 293.54 250.93 C292.62,252.42 290.46,252.26 289.08,250.60 C287.66,248.88 288.03,233.10 289.50,232.74 C290.08,232.60 290.62,235.64 290.78,240.00 C290.98,245.39 291.50,247.83 292.63,248.68 C293.49,249.33 293.90,250.35 293.54,250.93 ZM 573.00 228.50 C573.00,229.69 571.57,230.00 566.17,230.00 C562.41,230.00 559.05,229.71 558.69,229.36 C557.13,227.80 559.63,227.00 566.06,227.00 C571.56,227.00 573.00,227.31 573.00,228.50 ZM 498.76 228.75 C499.05,229.66 497.52,230.00 493.19,230.00 C488.53,230.00 487.07,229.63 486.57,228.33 C485.71,226.09 487.51,224.35 489.22,225.77 C489.94,226.36 492.28,227.00 494.44,227.18 C496.59,227.35 498.53,228.06 498.76,228.75 ZM 176.00 236.67 C176.00,232.41 175.13,231.58 172.83,233.65 C169.79,236.40 170.55,240.00 174.17,240.00 C175.58,240.00 176.00,239.23 176.00,236.67 ZM 620.00 238.50 C620.00,239.53 618.96,240.00 616.67,240.00 C614.83,240.00 613.03,239.70 612.67,239.33 C611.41,238.08 612.00,235.00 613.50,235.00 C614.33,235.00 615.00,235.45 615.00,236.00 C615.00,236.55 616.12,237.00 617.50,237.00 C619.06,237.00 620.00,237.57 620.00,238.50 ZM 620.00 248.50 C620.00,249.53 618.96,250.00 616.67,250.00 C614.83,250.00 613.03,249.70 612.67,249.33 C611.41,248.08 612.00,245.00 613.50,245.00 C614.33,245.00 615.00,245.45 615.00,246.00 C615.00,246.55 616.12,247.00 617.50,247.00 C619.06,247.00 620.00,247.57 620.00,248.50 ZM 387.00 229.00 C387.00,229.55 386.29,230.00 385.43,230.00 C384.37,230.00 383.97,229.26 384.18,227.75 C384.44,225.94 385.24,225.44 388.25,225.19 C391.11,224.95 392.00,225.25 392.00,226.44 C392.00,227.44 391.10,228.00 389.50,228.00 C388.12,228.00 387.00,228.45 387.00,229.00 ZM 589.25 249.34 C588.56,249.06 588.00,247.61 588.00,246.12 C588.00,244.62 588.56,242.80 589.25,242.08 C590.28,240.99 590.12,240.95 588.32,241.88 C584.15,244.02 584.57,250.13 588.87,249.92 C589.91,249.87 590.05,249.66 589.25,249.34 ZM 492.93 248.37 C494.07,246.92 495.00,244.86 495.00,243.81 C495.00,240.96 493.35,242.49 492.65,245.98 C492.18,248.36 491.53,249.00 489.58,249.00 C488.23,249.00 486.84,249.45 486.50,250.00 C485.05,252.34 490.98,250.83 492.93,248.37 ZM 361.00 242.50 C361.00,239.48 360.55,237.00 360.00,237.00 C358.90,237.00 358.60,246.27 359.67,247.33 C360.87,248.54 361.00,248.06 361.00,242.50 ZM 565.75 240.24 C564.24,239.30 563.00,237.97 563.00,237.27 C563.00,236.57 562.55,236.00 562.00,236.00 C561.45,236.00 561.00,236.88 561.00,237.95 C561.00,240.14 563.48,241.94 566.50,241.94 C568.21,241.95 568.09,241.70 565.75,240.24 ZM 378.00 245.70 C378.00,244.43 378.54,242.86 379.20,242.20 C379.94,241.46 380.00,241.00 379.35,241.00 C377.56,241.00 374.73,244.85 375.35,246.46 C376.24,248.80 378.00,248.30 378.00,245.70 ZM 349.59 234.77 C347.63,233.45 347.00,233.95 347.00,236.83 C347.00,240.85 348.18,241.52 349.53,238.27 C350.36,236.28 350.38,235.29 349.59,234.77 ZM 483.32 247.75 C482.22,242.77 481.94,242.36 480.89,244.24 C480.24,245.39 480.28,246.65 480.99,247.99 C482.44,250.70 483.93,250.55 483.32,247.75 ZM 547.49 242.31 C546.86,240.84 546.57,241.15 545.95,243.91 C544.89,248.62 546.10,251.59 547.34,247.31 C547.84,245.55 547.91,243.30 547.49,242.31 ZM 521.00 241.93 C521.00,240.79 520.36,239.21 519.57,238.42 C518.32,237.18 518.18,237.36 518.50,239.75 C518.70,241.26 518.89,242.84 518.93,243.25 C519.09,245.02 521.00,243.81 521.00,241.93 ZM 541.00 250.57 C541.00,250.34 539.65,249.47 538.00,248.65 C534.92,247.12 534.06,247.66 536.20,249.80 C537.32,250.92 541.00,251.51 541.00,250.57 ZM 349.00 247.30 C349.00,244.56 348.71,243.89 347.87,244.73 C347.24,245.36 347.03,246.97 347.39,248.43 C348.31,252.09 349.00,251.61 349.00,247.30 ZM 600.00 241.50 C600.00,240.12 599.55,239.00 599.00,239.00 C597.88,239.00 597.63,242.30 598.67,243.33 C599.77,244.44 600.00,244.12 600.00,241.50 ZM 389.00 245.94 C389.00,244.87 388.55,244.00 388.00,244.00 C387.45,244.00 387.00,245.15 387.00,246.56 C387.00,248.01 387.43,248.85 388.00,248.50 C388.55,248.16 389.00,247.01 389.00,245.94 Z" fill="rgb(118,216,124)"/>
<path d="M 0.00 193.50 L 0.00 0.00 L 540.00 0.00 L 1080.00 0.00 L 1080.00 193.50 L 1080.00 387.00 L 540.00 387.00 L 0.00 387.00 L 0.00 193.50 ZM 177.00 257.50 C177.00,242.38 176.66,230.00 176.24,230.00 C175.26,230.00 122.00,283.28 122.00,284.26 C122.00,284.67 134.38,285.00 149.50,285.00 L 177.00 285.00 L 177.00 257.50 ZM 170.50 219.75 L 219.50 170.50 L 197.75 170.23 L 176.00 169.96 L 176.00 149.98 C176.00,138.99 175.79,130.00 175.52,130.00 C174.65,130.00 78.00,226.29 78.00,227.15 C78.00,227.62 87.22,228.00 98.50,228.00 L 119.00 228.00 L 119.00 248.50 C119.00,264.19 119.29,269.00 120.25,269.00 C120.93,269.00 143.54,246.84 170.50,219.75 ZM 98.07 261.96 C99.61,261.14 100.00,259.84 100.00,255.50 C100.00,249.02 98.46,247.73 91.26,248.20 C87.31,248.45 86.50,248.86 86.04,250.82 C85.02,255.16 86.07,261.86 87.85,262.33 C91.03,263.17 96.15,262.99 98.07,261.96 ZM 293.54 250.93 C293.90,250.35 293.49,249.33 292.63,248.68 C291.50,247.83 290.98,245.39 290.78,240.00 C290.62,235.64 290.08,232.60 289.50,232.74 C288.03,233.10 287.66,248.88 289.08,250.60 C290.46,252.26 292.62,252.42 293.54,250.93 ZM 304.00 250.61 C304.00,249.84 303.33,248.95 302.50,248.64 C301.35,248.20 301.00,246.31 301.00,240.59 C301.00,233.40 299.99,230.58 298.36,233.22 C297.57,234.51 297.82,249.89 298.65,251.25 C299.49,252.60 304.00,252.06 304.00,250.61 ZM 321.46 246.82 C322.31,243.97 323.00,241.02 323.00,240.26 C323.00,237.53 324.79,240.06 325.46,243.74 C325.84,245.81 326.82,248.54 327.64,249.82 C329.75,253.09 331.46,251.29 332.86,244.32 C334.40,236.68 334.32,233.00 332.62,233.00 C331.25,233.00 330.00,237.12 330.00,241.62 C330.00,242.93 329.55,244.00 329.00,244.00 C328.45,244.00 328.00,243.32 328.00,242.48 C328.00,241.65 327.44,239.18 326.76,236.98 C325.01,231.37 322.60,231.70 321.03,237.75 C319.00,245.62 318.70,245.75 317.75,239.25 C317.12,234.97 316.38,233.00 315.41,233.00 C313.28,233.00 313.91,243.45 316.50,250.75 C317.55,253.72 319.99,251.79 321.46,246.82 ZM 349.80 244.96 C350.15,237.63 351.11,236.00 355.08,236.00 L 357.92 236.00 L 358.21 243.75 C358.44,249.84 358.82,251.50 360.00,251.50 C361.18,251.50 361.56,249.85 361.79,243.79 C362.04,237.13 361.80,235.80 360.04,234.04 C357.92,231.92 353.56,231.29 352.52,232.97 C352.19,233.50 350.59,233.67 348.96,233.34 L 346.00 232.75 L 346.00 241.71 C346.00,246.64 346.31,250.98 346.69,251.35 C348.42,253.09 349.52,250.82 349.80,244.96 ZM 388.69 249.41 C389.49,248.32 390.00,244.76 390.00,240.31 C390.00,233.75 389.80,233.00 388.07,233.00 C386.35,233.00 386.14,233.76 386.12,240.02 C386.11,243.88 385.82,247.48 385.49,248.02 C384.69,249.31 379.30,249.29 378.49,247.99 C377.53,246.44 378.96,243.00 380.57,243.00 C382.79,243.00 382.26,240.30 379.91,239.69 C377.14,238.96 377.78,235.61 380.78,235.18 C383.93,234.73 382.50,233.00 378.98,233.00 C375.13,233.00 373.24,236.21 375.08,239.65 C376.06,241.49 376.09,242.31 375.18,243.22 C373.41,244.99 373.75,247.35 376.14,249.93 C377.96,251.87 379.00,252.15 382.83,251.72 C385.59,251.41 387.90,250.50 388.69,249.41 ZM 422.00 249.50 C422.82,247.34 423.57,247.00 427.48,247.00 C431.36,247.00 432.00,247.29 432.00,249.03 C432.00,251.43 434.65,252.75 436.25,251.15 C437.08,250.32 436.47,247.26 433.96,239.52 C430.55,229.02 430.54,229.00 427.29,229.00 C424.57,229.00 423.93,229.45 423.38,231.75 C423.02,233.26 422.40,234.95 421.99,235.50 C420.93,236.97 417.00,248.76 417.00,250.50 C417.00,253.04 420.96,252.24 422.00,249.50 ZM 452.79 240.57 C452.99,232.65 452.73,229.45 451.82,228.89 C449.11,227.21 448.00,230.13 448.01,238.87 C448.03,249.26 448.68,252.21 450.88,251.79 C452.23,251.53 452.55,249.69 452.79,240.57 ZM 493.55 249.55 C496.78,246.31 496.95,239.48 493.89,235.59 C491.99,233.17 491.24,232.94 486.22,233.20 C479.23,233.58 477.59,236.00 484.33,236.00 C491.33,236.00 492.00,236.53 492.00,242.13 C492.00,246.37 491.66,247.20 489.56,248.15 C488.22,248.76 486.42,248.99 485.56,248.66 C483.53,247.88 483.47,243.00 485.50,243.00 C486.33,243.00 487.00,242.55 487.00,242.00 C487.00,241.45 485.42,241.00 483.50,241.00 C480.09,241.00 480.00,241.10 480.00,244.94 C480.00,247.88 480.56,249.28 482.22,250.44 C485.61,252.82 490.67,252.42 493.55,249.55 ZM 519.30 249.14 C520.37,248.08 521.44,245.28 521.71,242.86 C522.10,239.40 521.74,237.93 519.99,235.70 C517.98,233.16 517.29,232.93 512.22,233.20 C508.70,233.39 506.50,233.99 506.22,234.83 C505.88,235.86 506.77,236.01 510.27,235.48 C514.23,234.89 514.94,235.08 516.38,237.13 C518.44,240.08 518.47,245.39 516.42,247.44 C514.24,249.61 513.00,248.53 513.00,244.44 C513.00,241.28 512.75,241.00 510.00,241.00 C506.84,241.00 505.96,242.39 508.50,243.36 C509.50,243.75 510.00,245.32 510.00,248.10 L 510.00 252.26 L 513.69 251.66 C515.72,251.33 518.24,250.20 519.30,249.14 ZM 542.76 250.84 C543.63,249.97 544.28,249.99 545.41,250.93 C547.91,253.00 549.00,251.19 549.00,245.01 C549.00,237.51 547.73,234.23 544.31,232.93 C540.82,231.60 534.00,232.70 534.00,234.59 C534.00,236.24 534.96,236.35 538.32,235.07 C542.10,233.63 545.00,236.86 545.00,242.50 C545.00,245.93 544.54,247.18 542.96,248.02 C539.73,249.75 537.15,248.32 536.42,244.40 C535.66,240.37 533.65,240.37 533.18,244.39 C532.50,250.10 539.08,254.52 542.76,250.84 ZM 572.48 250.37 C575.31,247.54 573.98,243.90 569.08,241.04 C562.93,237.45 562.74,236.00 568.42,236.00 C571.82,236.00 573.00,235.62 573.00,234.50 C573.00,233.37 571.80,233.00 568.19,233.00 C558.30,233.00 556.87,238.81 565.75,242.94 C573.29,246.45 572.52,249.00 563.92,249.00 C561.76,249.00 560.00,249.41 560.00,249.92 C560.00,252.38 570.11,252.75 572.48,250.37 ZM 598.41 249.89 C600.92,247.91 601.07,247.36 600.79,240.64 C600.56,235.09 600.17,233.50 599.00,233.50 C597.83,233.50 597.44,235.10 597.21,240.74 C596.93,247.49 596.74,248.03 594.46,248.60 C593.11,248.94 591.33,248.96 590.50,248.64 C588.56,247.89 588.56,244.11 590.50,243.36 C592.65,242.54 592.35,240.32 590.00,239.71 C587.19,238.98 587.51,236.34 590.50,235.59 C591.88,235.24 593.00,234.57 593.00,234.09 C593.00,232.59 590.09,232.01 587.49,233.00 C584.78,234.04 584.08,237.68 586.20,239.80 C587.13,240.73 587.13,241.27 586.20,242.20 C584.48,243.92 584.72,248.03 586.65,250.17 C588.95,252.71 595.01,252.57 598.41,249.89 ZM 620.00 248.50 C620.00,247.57 619.06,247.00 617.50,247.00 C616.12,247.00 615.00,246.55 615.00,246.00 C615.00,245.45 614.33,245.00 613.50,245.00 C612.00,245.00 611.41,248.08 612.67,249.33 C613.03,249.70 614.83,250.00 616.67,250.00 C618.96,250.00 620.00,249.53 620.00,248.50 ZM 620.00 238.50 C620.00,237.57 619.06,237.00 617.50,237.00 C616.12,237.00 615.00,236.55 615.00,236.00 C615.00,235.45 614.33,235.00 613.50,235.00 C612.00,235.00 611.41,238.08 612.67,239.33 C613.03,239.70 614.83,240.00 616.67,240.00 C618.96,240.00 620.00,239.53 620.00,238.50 ZM 387.00 229.00 C387.00,228.45 388.12,228.00 389.50,228.00 C391.10,228.00 392.00,227.44 392.00,226.44 C392.00,225.25 391.11,224.95 388.25,225.19 C385.24,225.44 384.44,225.94 384.18,227.75 C383.97,229.26 384.37,230.00 385.43,230.00 C386.29,230.00 387.00,229.55 387.00,229.00 ZM 498.76 228.75 C498.53,228.06 496.59,227.35 494.44,227.18 C492.28,227.00 489.94,226.36 489.22,225.77 C487.51,224.35 485.71,226.09 486.57,228.33 C487.07,229.63 488.53,230.00 493.19,230.00 C497.52,230.00 499.05,229.66 498.76,228.75 ZM 573.00 228.50 C573.00,227.31 571.56,227.00 566.06,227.00 C559.63,227.00 557.13,227.80 558.69,229.36 C559.05,229.71 562.41,230.00 566.17,230.00 C571.57,230.00 573.00,229.69 573.00,228.50 ZM 234.77 200.25 C234.91,185.26 234.68,173.00 234.26,173.00 C232.82,173.00 179.92,226.59 180.64,227.31 C181.04,227.71 193.32,227.91 207.93,227.77 L 234.50 227.50 L 234.77 200.25 ZM 89.88 199.61 C105.49,184.01 115.98,172.78 115.57,172.12 C115.09,171.34 107.01,171.00 88.94,171.00 L 63.00 171.00 L 63.00 178.25 C63.00,182.24 62.70,194.61 62.34,205.75 C61.95,217.71 62.05,225.99 62.59,225.99 C63.09,225.98 75.37,214.11 89.88,199.61 ZM 539.83 206.46 C542.69,205.61 546.62,203.52 548.57,201.81 L 552.10 198.70 L 548.86 195.35 C545.04,191.42 544.26,191.32 538.79,194.11 C533.53,196.79 525.74,196.38 521.24,193.17 C511.22,186.04 512.23,169.07 523.00,163.50 C526.97,161.45 534.30,161.62 538.95,163.86 L 542.81 165.72 L 546.40 161.42 C548.38,159.06 550.00,156.85 550.00,156.51 C550.00,156.18 547.64,154.81 544.75,153.46 C540.47,151.47 537.91,151.02 530.87,151.01 C518.15,151.00 510.69,154.75 505.36,163.83 C503.14,167.62 502.54,170.06 502.19,176.71 C501.55,188.71 505.00,196.26 513.93,202.45 C521.49,207.69 530.82,209.13 539.83,206.46 ZM 703.29 206.51 C710.39,204.66 716.78,200.72 717.53,197.72 C717.85,196.47 717.97,191.41 717.80,186.47 L 717.50 177.50 L 706.75 177.22 L 696.00 176.93 L 696.00 181.97 L 696.00 187.00 L 700.56 187.00 C705.10,187.00 705.13,187.02 704.81,190.23 C704.60,192.46 703.73,193.86 702.00,194.77 C698.27,196.73 689.97,195.83 686.04,193.03 C682.21,190.30 679.05,183.98 679.02,178.96 C678.99,174.51 682.65,167.23 686.24,164.62 C690.21,161.73 699.40,161.30 704.16,163.78 L 707.83 165.70 L 711.55 161.24 C715.67,156.32 715.69,156.39 708.50,152.95 C702.38,150.03 689.11,150.26 682.50,153.39 C676.85,156.06 672.19,160.62 669.10,166.49 C666.61,171.21 666.26,183.17 668.43,189.25 C671.35,197.45 678.90,204.20 687.80,206.60 C694.07,208.29 696.53,208.27 703.29,206.51 ZM 761.08 206.86 C766.40,205.26 771.42,200.82 774.06,195.37 C776.03,191.31 776.36,188.70 776.79,173.98 C777.05,164.76 776.98,156.04 776.62,154.61 C776.01,152.21 775.54,152.00 770.64,152.00 L 765.31 152.00 L 764.64 170.59 C764.27,180.82 763.50,190.07 762.92,191.15 C761.46,193.88 756.04,196.99 752.74,197.00 C750.98,197.00 748.61,195.75 746.24,193.58 L 742.50 190.16 L 742.19 171.08 L 741.88 152.00 L 735.94 152.00 L 730.00 152.00 L 730.02 171.25 C730.04,187.71 730.31,191.08 731.87,194.50 C734.06,199.31 740.88,205.71 744.72,206.56 C746.25,206.90 747.95,207.33 748.50,207.51 C750.79,208.27 757.53,207.92 761.08,206.86 ZM 881.67 206.51 C888.95,204.34 895.72,198.79 898.59,192.62 C900.50,188.53 900.98,185.83 900.99,179.22 C901.01,166.23 897.02,159.06 886.96,153.98 C881.73,151.34 880.06,151.00 872.28,151.03 C864.33,151.05 862.93,151.36 857.50,154.28 C852.84,156.78 850.62,158.82 847.57,163.41 C843.71,169.21 843.64,169.49 843.65,178.41 C843.66,187.75 844.57,190.80 849.26,197.14 C855.82,206.01 869.76,210.04 881.67,206.51 ZM 954.71 205.15 C960.02,202.44 966.69,194.77 968.22,189.61 C969.78,184.35 969.78,173.67 968.23,168.45 C966.60,162.96 960.81,156.45 954.92,153.46 C950.90,151.42 948.61,151.00 941.62,151.00 C928.03,151.00 919.40,155.91 914.39,166.50 C911.07,173.50 911.06,184.44 914.37,191.54 C917.26,197.75 924.74,204.52 930.91,206.51 C937.27,208.56 949.38,207.87 954.71,205.15 ZM 404.50 201.00 L 404.50 195.50 L 391.25 195.22 L 378.00 194.94 L 378.00 189.50 L 378.00 184.07 L 388.75 183.78 L 399.50 183.50 L 399.80 177.64 L 400.11 171.77 L 389.30 172.14 L 378.50 172.50 L 378.20 167.78 L 377.89 163.06 L 391.20 162.78 L 404.50 162.50 L 404.50 157.12 L 404.50 151.75 L 385.52 151.93 C375.09,152.03 366.43,152.24 366.28,152.39 C366.13,152.54 365.97,164.50 365.93,178.98 C365.87,199.78 366.13,205.47 367.18,206.14 C367.90,206.61 376.60,206.88 386.50,206.75 L 404.50 206.50 L 404.50 201.00 ZM 573.58 200.40 L 575.27 195.00 L 584.04 195.00 L 592.81 195.00 L 594.54 200.50 L 596.27 206.00 L 602.08 206.00 C605.27,206.00 608.12,205.62 608.41,205.14 C608.70,204.67 607.61,200.51 605.99,195.89 C604.37,191.28 600.77,180.75 597.98,172.50 C590.25,149.61 591.89,152.00 583.88,152.00 C580.10,152.00 577.00,152.11 576.99,152.25 C576.99,152.39 573.34,163.07 568.89,176.00 C564.44,188.93 560.57,200.93 560.30,202.67 C559.84,205.56 560.06,205.88 562.65,206.17 C564.22,206.35 566.94,206.34 568.69,206.15 C571.58,205.83 572.04,205.29 573.58,200.40 ZM 658.68 205.75 C659.19,205.06 659.58,202.48 659.55,200.00 L 659.50 195.50 L 646.00 195.00 L 632.50 194.50 L 632.23 173.25 L 631.96 152.00 L 625.98 152.00 L 620.00 152.00 L 620.00 178.83 C620.00,193.59 620.30,205.97 620.67,206.33 C621.03,206.70 629.53,207.00 639.54,207.00 C652.95,207.00 658.00,206.67 658.68,205.75 ZM 300.00 193.88 C300.00,183.73 300.22,181.94 301.37,182.89 C302.12,183.52 303.55,186.16 304.54,188.76 C305.54,191.37 307.67,196.33 309.29,199.79 L 312.23 206.08 L 319.30 205.79 L 326.38 205.50 L 331.59 194.00 C334.45,187.68 337.18,182.62 337.65,182.77 C338.12,182.92 338.50,188.10 338.50,194.27 L 338.50 205.50 L 344.50 205.50 L 350.50 205.50 L 350.78 181.00 C350.94,167.52 350.81,155.47 350.50,154.21 C349.98,152.06 349.51,151.93 343.31,152.21 L 336.67 152.50 L 333.75 159.50 C328.06,173.17 319.72,191.00 319.02,191.00 C318.63,191.00 314.57,182.23 310.00,171.50 L 301.68 152.00 L 294.84 152.00 L 288.00 152.00 L 288.00 179.00 L 288.00 206.00 L 294.00 206.00 L 300.00 206.00 L 300.00 193.88 ZM 447.50 204.90 C453.72,203.21 462.35,193.87 463.99,187.05 C465.76,179.65 464.72,169.90 461.58,164.54 C456.05,155.11 448.17,152.00 429.78,152.00 L 418.00 152.00 L 418.00 179.00 L 418.00 206.00 L 430.75 205.99 C437.76,205.99 445.30,205.50 447.50,204.90 ZM 489.38 202.88 C490.18,198.84 490.17,160.66 489.36,155.75 L 488.74 152.00 L 482.87 152.00 L 477.00 152.00 L 477.00 179.00 L 477.00 206.00 L 482.88 206.00 C488.65,206.00 488.76,205.95 489.38,202.88 ZM 803.21 196.25 L 803.50 186.50 L 806.44 186.50 C809.14,186.50 809.78,187.28 814.44,196.24 L 819.50 205.97 L 825.19 205.99 C828.32,205.99 831.10,205.65 831.36,205.23 C831.62,204.80 829.85,200.53 827.42,195.73 C822.81,186.62 822.11,184.00 824.31,184.00 C826.41,184.00 830.95,178.66 832.02,174.93 C833.53,169.65 833.19,165.03 830.95,160.40 C827.47,153.20 825.73,152.59 807.63,152.16 C796.08,151.89 791.55,152.11 791.02,152.97 C790.61,153.63 790.44,165.04 790.65,178.33 C790.85,191.62 791.01,203.29 791.01,204.25 C791.00,205.72 791.95,206.00 796.96,206.00 L 802.93 206.00 L 803.21 196.25 ZM 147.43 141.85 C165.97,123.05 173.79,114.48 172.85,114.00 C172.11,113.62 159.80,113.35 145.50,113.40 L 119.50 113.50 L 119.23 141.25 C119.09,156.51 119.35,169.00 119.81,169.00 C120.27,169.00 132.70,156.78 147.43,141.85 ZM 210.75 150.05 C211.63,150.02 212.00,147.91 212.00,143.00 L 212.00 136.00 L 204.50 136.00 L 197.00 136.00 L 197.00 142.93 C197.00,150.69 197.24,150.90 205.50,150.36 C207.70,150.22 210.06,150.08 210.75,150.05 ZM 425.80 241.46 C424.75,240.42 426.20,237.00 427.69,237.00 C428.61,237.00 429.02,237.79 428.82,239.17 C428.50,241.34 426.89,242.56 425.80,241.46 ZM 864.91 194.67 C854.20,189.02 852.62,172.08 862.16,165.04 C864.95,162.97 866.65,162.57 872.68,162.54 C879.32,162.50 880.11,162.73 883.06,165.50 C889.34,171.41 890.76,180.09 886.75,188.03 C882.54,196.37 873.39,199.15 864.91,194.67 ZM 935.22 195.74 C927.74,193.35 922.77,183.34 924.91,175.00 C927.30,165.70 932.81,161.65 942.26,162.26 C949.23,162.71 952.63,164.91 955.75,171.02 C959.92,179.19 957.59,188.39 949.93,193.94 C945.40,197.22 941.36,197.71 935.22,195.74 ZM 580.45 180.25 C583.02,169.59 583.10,169.42 584.62,171.49 C586.43,173.97 588.28,180.74 587.49,182.02 C587.15,182.56 585.28,183.00 583.33,183.00 C579.97,183.00 579.82,182.86 580.45,180.25 ZM 430.00 179.00 L 430.00 163.00 L 434.63 163.00 C442.77,163.00 446.96,164.87 450.22,169.95 C452.75,173.88 453.10,175.26 452.77,180.07 C452.10,190.09 446.43,195.00 435.53,195.00 L 430.00 195.00 L 430.00 179.00 ZM 803.67 174.33 C803.30,173.97 803.00,171.27 803.00,168.33 L 803.00 163.00 L 810.00 163.00 C815.67,163.00 817.38,163.38 819.00,165.00 C820.10,166.10 821.00,167.48 821.00,168.07 C821.00,169.57 818.91,173.36 817.60,174.23 C816.22,175.15 804.57,175.24 803.67,174.33 Z" fill="rgb(254,254,254)"/>
</g>
</svg>